# xmcd
#
# Track frame offsets: 
#        150
#        31419
#        52187
#        74140
#        89948
#        106570
#        135473
#        157872
#        198387
#        217975
#        229881
#        245861
#        266503
#        292628
#        322308
#
# Disc length: 4679 seconds
#
# Revision: 0
# Processed by: cddbd v1.5.2PL0 Copyright (c) Steve Scherf et al.
# Submitted via: ExactAudioCopy v1.3
#
DISCID=e412450f
DTITLE=Eric Clapton - Crossroads Guitar Festival 2013 [CD2]
DYEAR=2013
DGENRE=Blues
TTITLE0=Sonny Landreth with Derek Trucks - Congo Square
TTITLE1=John Mayer with Doyle Bramhall II - Change It
TTITLE2=Jimmie Vaughan - Ooh-Ooh-Ooh
TTITLE3=Blake Mills with Derek Trucks - Save the Last Dance for Me
TTITLE4=Los Lobos - Don't Worry Baby
TTITLE5=Vince Gill with Albert Lee - I Ain't Living Long Like This
TTITLE6=Taj Mahal with Keb' Mo' - Diving Duck Blues
TTITLE7=Gary Clark Jr. - When My Train Pulls In
TTITLE8=Jeff Beck - Mná Na Héireann
TTITLE9=Allman, Haynes, Trucks - The Needle and the Damage Done
TTITLE10=Allman, Haynes, Trucks - Midnight Rider
TTITLE11=Eric Clapton With Keith Richards - Key to the Highway
TTITLE12=Andy Fairweather Low with Eric Clapton - Gin House Blues
TTITLE13=Got to Get Better in a Little While
TTITLE14=Sunshine of Your Love
EXTD=
EXTT0=
EXTT1=
EXTT2=
EXTT3=
EXTT4=
EXTT5=
EXTT6=
EXTT7=
EXTT8=
EXTT9=
EXTT10=
EXTT11=
EXTT12=
EXTT13=
EXTT14=
PLAYORDER=
